<?xml version="1.0" encoding="UTF-8" standalone="no"?>
<!DOCTYPE svg PUBLIC "-//W3C//DTD SVG 1.1//EN"
 "http://www.w3.org/Graphics/SVG/1.1/DTD/svg11.dtd">
<!-- Generated by graphviz version 2.26.3 (20100126.1600)
 -->
<!-- Title: models_diagram Pages: 1 -->
<svg width="750pt" height="588pt"
 viewBox="0.00 0.00 750.00 588.00" xmlns="http://www.w3.org/2000/svg" xmlns:xlink="http://www.w3.org/1999/xlink">
<g id="graph1" class="graph" transform="scale(1 1) rotate(0) translate(4 584)">
<title>models_diagram</title>
<polygon fill="white" stroke="white" points="-4,5 -4,-584 747,-584 747,5 -4,5"/>
<!-- User -->
<g id="node1" class="node"><title>User</title>
<polyline fill="none" stroke="black" points="382,-383 548,-383 "/>
<path fill="none" stroke="black" d="M548,-383C554,-383 560,-389 560,-395"/>
<polyline fill="none" stroke="black" points="560,-395 560,-567 "/>
<path fill="none" stroke="black" d="M560,-567C560,-573 554,-579 548,-579"/>
<polyline fill="none" stroke="black" points="548,-579 382,-579 "/>
<path fill="none" stroke="black" d="M382,-579C376,-579 370,-573 370,-567"/>
<polyline fill="none" stroke="black" points="370,-567 370,-395 "/>
<path fill="none" stroke="black" d="M370,-395C370,-389 376,-383 382,-383"/>
<text text-anchor="middle" x="465" y="-562.4" font-family="Times Roman,serif" font-size="14.00">User</text>
<polyline fill="none" stroke="black" points="370,-553 560,-553 "/>
<text text-anchor="start" x="378" y="-536.4" font-family="Times Roman,serif" font-size="14.00">id :integer</text>
<text text-anchor="start" x="378" y="-518.4" font-family="Times Roman,serif" font-size="14.00">username :string</text>
<text text-anchor="start" x="378" y="-500.4" font-family="Times Roman,serif" font-size="14.00">modhash :string</text>
<text text-anchor="start" x="378" y="-482.4" font-family="Times Roman,serif" font-size="14.00">active :boolean</text>
<text text-anchor="start" x="378" y="-464.4" font-family="Times Roman,serif" font-size="14.00">comment_karma :integer</text>
<text text-anchor="start" x="378" y="-446.4" font-family="Times Roman,serif" font-size="14.00">created_at :datetime</text>
<text text-anchor="start" x="378" y="-428.4" font-family="Times Roman,serif" font-size="14.00">updated_at :datetime</text>
<text text-anchor="start" x="378" y="-410.4" font-family="Times Roman,serif" font-size="14.00">link_karma :integer</text>
<text text-anchor="start" x="378" y="-392.4" font-family="Times Roman,serif" font-size="14.00">persistence_token :string</text>
</g>
<!-- Entity -->
<g id="node2" class="node"><title>Entity</title>
<polyline fill="none" stroke="black" points="211,-138 353,-138 "/>
<path fill="none" stroke="black" d="M353,-138C359,-138 365,-144 365,-150"/>
<polyline fill="none" stroke="black" points="365,-150 365,-286 "/>
<path fill="none" stroke="black" d="M365,-286C365,-292 359,-298 353,-298"/>
<polyline fill="none" stroke="black" points="353,-298 211,-298 "/>
<path fill="none" stroke="black" d="M211,-298C205,-298 199,-292 199,-286"/>
<polyline fill="none" stroke="black" points="199,-286 199,-150 "/>
<path fill="none" stroke="black" d="M199,-150C199,-144 205,-138 211,-138"/>
<text text-anchor="middle" x="282" y="-281.4" font-family="Times Roman,serif" font-size="14.00">Entity</text>
<polyline fill="none" stroke="black" points="199,-272 365,-272 "/>
<text text-anchor="start" x="207" y="-255.4" font-family="Times Roman,serif" font-size="14.00">id :integer</text>
<text text-anchor="start" x="207" y="-237.4" font-family="Times Roman,serif" font-size="14.00">name :string</text>
<text text-anchor="start" x="207" y="-219.4" font-family="Times Roman,serif" font-size="14.00">wikipedia_slug :string</text>
<text text-anchor="start" x="207" y="-201.4" font-family="Times Roman,serif" font-size="14.00">content :string</text>
<text text-anchor="start" x="207" y="-183.4" font-family="Times Roman,serif" font-size="14.00">created_at :datetime</text>
<text text-anchor="start" x="207" y="-165.4" font-family="Times Roman,serif" font-size="14.00">updated_at :datetime</text>
<text text-anchor="start" x="207" y="-147.4" font-family="Times Roman,serif" font-size="14.00">slug :string</text>
</g>
<!-- User&#45;&gt;Entity -->
<g id="edge2" class="edge"><title>User&#45;&gt;Entity</title>
<path fill="none" stroke="#f4d58c" d="M390.878,-374.475C375.161,-351.886 358.733,-328.278 343.544,-306.448"/>
<polygon fill="#f4d58c" stroke="#f4d58c" points="390.886,-374.486 392.904,-385.265 393.742,-378.59 396.597,-382.695 396.597,-382.695 396.597,-382.695 393.742,-378.59 400.291,-380.124 390.886,-374.486 390.886,-374.486"/>
<polygon fill="#f4d58c" stroke="#f4d58c" points="343.499,-306.383 341.481,-295.605 340.643,-302.279 337.787,-298.175 337.787,-298.175 337.787,-298.175 340.643,-302.279 334.093,-300.745 343.499,-306.383 343.499,-306.383"/>
</g>
<!-- Ama -->
<g id="node4" class="node"><title>Ama</title>
<polyline fill="none" stroke="black" points="394.5,-93 535.5,-93 "/>
<path fill="none" stroke="black" d="M535.5,-93C541.5,-93 547.5,-99 547.5,-105"/>
<polyline fill="none" stroke="black" points="547.5,-105 547.5,-331 "/>
<path fill="none" stroke="black" d="M547.5,-331C547.5,-337 541.5,-343 535.5,-343"/>
<polyline fill="none" stroke="black" points="535.5,-343 394.5,-343 "/>
<path fill="none" stroke="black" d="M394.5,-343C388.5,-343 382.5,-337 382.5,-331"/>
<polyline fill="none" stroke="black" points="382.5,-331 382.5,-105 "/>
<path fill="none" stroke="black" d="M382.5,-105C382.5,-99 388.5,-93 394.5,-93"/>
<text text-anchor="middle" x="465" y="-326.4" font-family="Times Roman,serif" font-size="14.00">Ama</text>
<polyline fill="none" stroke="black" points="382.5,-317 547.5,-317 "/>
<text text-anchor="start" x="390.5" y="-300.4" font-family="Times Roman,serif" font-size="14.00">id :integer</text>
<text text-anchor="start" x="390.5" y="-282.4" font-family="Times Roman,serif" font-size="14.00">key :string</text>
<text text-anchor="start" x="390.5" y="-264.4" font-family="Times Roman,serif" font-size="14.00">date :datetime</text>
<text text-anchor="start" x="390.5" y="-246.4" font-family="Times Roman,serif" font-size="14.00">title :string</text>
<text text-anchor="start" x="390.5" y="-228.4" font-family="Times Roman,serif" font-size="14.00">content :text</text>
<text text-anchor="start" x="390.5" y="-210.4" font-family="Times Roman,serif" font-size="14.00">karma :integer</text>
<text text-anchor="start" x="390.5" y="-192.4" font-family="Times Roman,serif" font-size="14.00">user_id :integer</text>
<text text-anchor="start" x="390.5" y="-174.4" font-family="Times Roman,serif" font-size="14.00">permalink :string</text>
<text text-anchor="start" x="390.5" y="-156.4" font-family="Times Roman,serif" font-size="14.00">created_at :datetime</text>
<text text-anchor="start" x="390.5" y="-138.4" font-family="Times Roman,serif" font-size="14.00">updated_at :datetime</text>
<text text-anchor="start" x="390.5" y="-120.4" font-family="Times Roman,serif" font-size="14.00">comments :integer</text>
<text text-anchor="start" x="390.5" y="-102.4" font-family="Times Roman,serif" font-size="14.00">responses :integer</text>
</g>
<!-- User&#45;&gt;Ama -->
<g id="edge6" class="edge"><title>User&#45;&gt;Ama</title>
<path fill="none" stroke="#ec6f23" d="M465,-374.514C465,-367.619 465,-360.629 465,-353.623"/>
<ellipse fill="none" stroke="#ec6f23" cx="465" cy="-378.695" rx="4" ry="4"/>
<polygon fill="#ec6f23" stroke="#ec6f23" points="465,-353.356 469.5,-343.356 465,-348.356 465,-343.356 465,-343.356 465,-343.356 465,-348.356 460.5,-343.356 465,-353.356 465,-353.356"/>
</g>
<!-- Comment -->
<g id="node5" class="node"><title>Comment</title>
<polyline fill="none" stroke="black" points="576.5,-102 717.5,-102 "/>
<path fill="none" stroke="black" d="M717.5,-102C723.5,-102 729.5,-108 729.5,-114"/>
<polyline fill="none" stroke="black" points="729.5,-114 729.5,-322 "/>
<path fill="none" stroke="black" d="M729.5,-322C729.5,-328 723.5,-334 717.5,-334"/>
<polyline fill="none" stroke="black" points="717.5,-334 576.5,-334 "/>
<path fill="none" stroke="black" d="M576.5,-334C570.5,-334 564.5,-328 564.5,-322"/>
<polyline fill="none" stroke="black" points="564.5,-322 564.5,-114 "/>
<path fill="none" stroke="black" d="M564.5,-114C564.5,-108 570.5,-102 576.5,-102"/>
<text text-anchor="middle" x="647" y="-317.4" font-family="Times Roman,serif" font-size="14.00">Comment</text>
<polyline fill="none" stroke="black" points="564.5,-308 729.5,-308 "/>
<text text-anchor="start" x="572.5" y="-291.4" font-family="Times Roman,serif" font-size="14.00">id :integer</text>
<text text-anchor="start" x="572.5" y="-273.4" font-family="Times Roman,serif" font-size="14.00">ama_id :integer</text>
<text text-anchor="start" x="572.5" y="-255.4" font-family="Times Roman,serif" font-size="14.00">key :string</text>
<text text-anchor="start" x="572.5" y="-237.4" font-family="Times Roman,serif" font-size="14.00">user_id :integer</text>
<text text-anchor="start" x="572.5" y="-219.4" font-family="Times Roman,serif" font-size="14.00">content :text</text>
<text text-anchor="start" x="572.5" y="-201.4" font-family="Times Roman,serif" font-size="14.00">parent_key :string</text>
<text text-anchor="start" x="572.5" y="-183.4" font-family="Times Roman,serif" font-size="14.00">date :datetime</text>
<text text-anchor="start" x="572.5" y="-165.4" font-family="Times Roman,serif" font-size="14.00">karma :integer</text>
<text text-anchor="start" x="572.5" y="-147.4" font-family="Times Roman,serif" font-size="14.00">created_at :datetime</text>
<text text-anchor="start" x="572.5" y="-129.4" font-family="Times Roman,serif" font-size="14.00">updated_at :datetime</text>
<text text-anchor="start" x="572.5" y="-111.4" font-family="Times Roman,serif" font-size="14.00">parent_id :integer</text>
</g>
<!-- User&#45;&gt;Comment -->
<g id="edge4" class="edge"><title>User&#45;&gt;Comment</title>
<path fill="none" stroke="#cd5e86" d="M537.655,-376.009C545.204,-365.101 552.929,-353.938 560.609,-342.839"/>
<ellipse fill="none" stroke="#cd5e86" cx="535.305" cy="-379.405" rx="4.00002" ry="4.00002"/>
<polygon fill="#cd5e86" stroke="#cd5e86" points="560.78,-342.593 570.171,-336.93 563.625,-338.481 566.471,-334.37 566.471,-334.37 566.471,-334.37 563.625,-338.481 562.77,-331.809 560.78,-342.593 560.78,-342.593"/>
</g>
<!-- ActsAsTaggableOn::Tagging -->
<g id="node10" class="node"><title>ActsAsTaggableOn::Tagging</title>
<ellipse fill="none" stroke="black" cx="144" cy="-19" rx="144.25" ry="18.3848"/>
<text text-anchor="middle" x="144" y="-15.4" font-family="Times Roman,serif" font-size="14.00">ActsAsTaggableOn::Tagging</text>
</g>
<!-- Entity&#45;&gt;ActsAsTaggableOn::Tagging -->
<g id="edge8" class="edge"><title>Entity&#45;&gt;ActsAsTaggableOn::Tagging</title>
<path fill="none" stroke="#910755" d="M192.988,-145.074C173.619,-124.309 155.729,-100.15 145,-74 141.65,-65.8341 140.588,-56.3958 140.599,-47.6681"/>
<ellipse fill="none" stroke="#910755" cx="196" cy="-148.229" rx="4.00002" ry="4.00002"/>
<polygon fill="#910755" stroke="#910755" points="140.607,-47.4976 145.559,-37.7134 140.835,-42.5028 141.063,-37.508 141.063,-37.508 141.063,-37.508 140.835,-42.5028 136.568,-37.3027 140.607,-47.4976 140.607,-47.4976"/>
<text text-anchor="middle" x="174.5" y="-61.4" font-family="Times Roman,serif" font-size="14.00">taggings</text>
</g>
<!-- Entity&#45;&gt;ActsAsTaggableOn::Tagging -->
<g id="edge12" class="edge"><title>Entity&#45;&gt;ActsAsTaggableOn::Tagging</title>
<path fill="none" stroke="#c6f981" d="M250.799,-130.314C238.834,-104.479 223.305,-77.4217 204,-56 199.645,-51.1675 194.512,-46.7466 189.111,-42.7747"/>
<ellipse fill="none" stroke="#c6f981" cx="252.591" cy="-134.278" rx="4.00002" ry="4.00002"/>
<polygon fill="#c6f981" stroke="#c6f981" points="188.749,-42.5286 183.007,-33.1862 184.613,-39.7184 180.478,-36.9082 180.478,-36.9082 180.478,-36.9082 184.613,-39.7184 177.948,-40.6302 188.749,-42.5286 188.749,-42.5286"/>
<text text-anchor="middle" x="261.5" y="-61.4" font-family="Times Roman,serif" font-size="14.00">tag_taggings</text>
</g>
<!-- ActsAsTaggableOn::Tag -->
<g id="node12" class="node"><title>ActsAsTaggableOn::Tag</title>
<ellipse fill="none" stroke="black" cx="429" cy="-19" rx="123.243" ry="18.3848"/>
<text text-anchor="middle" x="429" y="-15.4" font-family="Times Roman,serif" font-size="14.00">ActsAsTaggableOn::Tag</text>
</g>
<!-- Entity&#45;&gt;ActsAsTaggableOn::Tag -->
<g id="edge10" class="edge"><title>Entity&#45;&gt;ActsAsTaggableOn::Tag</title>
<path fill="none" stroke="#25088d" d="M299.014,-128.03C307.5,-102.278 320.158,-75.8424 339,-56 345.085,-49.5914 352.442,-44.2569 360.296,-39.8251"/>
<polygon fill="#25088d" stroke="#25088d" points="298.93,-128.301 291.664,-136.515 297.446,-133.076 295.961,-137.851 295.961,-137.851 295.961,-137.851 297.446,-133.076 300.259,-139.186 298.93,-128.301 298.93,-128.301"/>
<polygon fill="#25088d" stroke="#25088d" points="360.433,-39.7549 371.385,-39.2011 364.883,-37.4754 369.334,-35.196 369.334,-35.196 369.334,-35.196 364.883,-37.4754 367.282,-31.1908 360.433,-39.7549 360.433,-39.7549"/>
<text text-anchor="middle" x="373.5" y="-61.4" font-family="Times Roman,serif" font-size="14.00">base_tags</text>
</g>
<!-- Entity&#45;&gt;ActsAsTaggableOn::Tag -->
<g id="edge14" class="edge"><title>Entity&#45;&gt;ActsAsTaggableOn::Tag</title>
<path fill="none" stroke="#6744f5" d="M338.406,-129.708C349.253,-116.165 361.246,-103.04 374,-92 386.927,-80.8095 396.67,-86.8057 408,-74 414.665,-66.467 419.309,-56.5984 422.501,-47.3029"/>
<polygon fill="#6744f5" stroke="#6744f5" points="338.307,-129.835 328.607,-134.949 335.23,-133.776 332.154,-137.718 332.154,-137.718 332.154,-137.718 335.23,-133.776 335.701,-140.486 338.307,-129.835 338.307,-129.835"/>
<polygon fill="#6744f5" stroke="#6744f5" points="422.545,-47.1562 429.731,-38.8733 423.983,-42.3675 425.421,-37.5789 425.421,-37.5789 425.421,-37.5789 423.983,-42.3675 421.111,-36.2844 422.545,-47.1562 422.545,-47.1562"/>
<text text-anchor="middle" x="434" y="-61.4" font-family="Times Roman,serif" font-size="14.00">tags</text>
</g>
<!-- Admin -->
<g id="node3" class="node"><title>Admin</title>
<polyline fill="none" stroke="black" points="589.5,-428 730.5,-428 "/>
<path fill="none" stroke="black" d="M730.5,-428C736.5,-428 742.5,-434 742.5,-440"/>
<polyline fill="none" stroke="black" points="742.5,-440 742.5,-522 "/>
<path fill="none" stroke="black" d="M742.5,-522C742.5,-528 736.5,-534 730.5,-534"/>
<polyline fill="none" stroke="black" points="730.5,-534 589.5,-534 "/>
<path fill="none" stroke="black" d="M589.5,-534C583.5,-534 577.5,-528 577.5,-522"/>
<polyline fill="none" stroke="black" points="577.5,-522 577.5,-440 "/>
<path fill="none" stroke="black" d="M577.5,-440C577.5,-434 583.5,-428 589.5,-428"/>
<text text-anchor="middle" x="660" y="-517.4" font-family="Times Roman,serif" font-size="14.00">Admin</text>
<polyline fill="none" stroke="black" points="577.5,-508 742.5,-508 "/>
<text text-anchor="start" x="585.5" y="-491.4" font-family="Times Roman,serif" font-size="14.00">id :integer</text>
<text text-anchor="start" x="585.5" y="-473.4" font-family="Times Roman,serif" font-size="14.00">user_id :integer</text>
<text text-anchor="start" x="585.5" y="-455.4" font-family="Times Roman,serif" font-size="14.00">created_at :datetime</text>
<text text-anchor="start" x="585.5" y="-437.4" font-family="Times Roman,serif" font-size="14.00">updated_at :datetime</text>
</g>
</g>
</svg>
